<svg width="14" height="15" viewBox="0 0 14 15" fill="none" xmlns="http://www.w3.org/2000/svg">
<path fill-rule="evenodd" clip-rule="evenodd" d="M7.01937 1.5C4.00658 1.5 1.5 4.14943 1.5 7.5C1.5 10.8506 4.00658 13.5 7.01937 13.5C10.0322 13.5 12.5387 10.8506 12.5387 7.5C12.5387 4.14943 10.0322 1.5 7.01937 1.5ZM0.5 7.5C0.5 3.67087 3.38334 0.5 7.01937 0.5C10.6554 0.5 13.5387 3.67087 13.5387 7.5C13.5387 11.3291 10.6554 14.5 7.01937 14.5C3.38334 14.5 0.5 11.3291 0.5 7.5Z" fill="white"/>
<path fill-rule="evenodd" clip-rule="evenodd" d="M0.5 7.5C0.5 7.22386 0.723858 7 1 7H13.0387C13.3149 7 13.5387 7.22386 13.5387 7.5C13.5387 7.77614 13.3149 8 13.0387 8H1C0.723858 8 0.5 7.77614 0.5 7.5Z" fill="white"/>
<path fill-rule="evenodd" clip-rule="evenodd" d="M5.11173 7.50003C5.15387 9.58272 5.82939 11.5818 7.01938 13.1942C8.20937 11.5818 8.88489 9.58272 8.92703 7.50003C8.88489 5.41735 8.20937 3.41825 7.01938 1.80591C5.82939 3.41825 5.15387 5.41735 5.11173 7.50003ZM7.01938 1.00003L6.63764 0.677124C5.05511 2.54798 4.16036 4.96955 4.11173 7.49039C4.1116 7.49682 4.1116 7.50325 4.11173 7.50968C4.16036 10.0305 5.05511 12.4521 6.63764 14.3229C6.73264 14.4353 6.87228 14.5 7.01938 14.5C7.16648 14.5 7.30612 14.4353 7.40112 14.3229C8.98365 12.4521 9.8784 10.0305 9.92703 7.50968C9.92716 7.50325 9.92716 7.49682 9.92703 7.49039C9.8784 4.96955 8.98365 2.54798 7.40112 0.677124L7.01938 1.00003Z" fill="white"/>
</svg>
