<svg width="15" height="12" viewBox="0 0 15 12" fill="none" xmlns="http://www.w3.org/2000/svg">
<path fill-rule="evenodd" clip-rule="evenodd" d="M2.30006 1.5C1.8612 1.5 1.50006 1.86114 1.50006 2.3V10.1C1.50006 10.5389 1.8612 10.9 2.30006 10.9H12.7001C13.1389 10.9 13.5001 10.5389 13.5001 10.1V2.3C13.5001 1.86114 13.1389 1.5 12.7001 1.5H2.30006ZM0.500061 2.3C0.500061 1.30886 1.30892 0.5 2.30006 0.5H12.7001C13.6912 0.5 14.5001 1.30886 14.5001 2.3V10.1C14.5001 11.0911 13.6912 11.9 12.7001 11.9H2.30006C1.30892 11.9 0.500061 11.0911 0.500061 10.1V2.3Z" fill="white"/>
<path fill-rule="evenodd" clip-rule="evenodd" d="M0.590427 2.01324C0.748784 1.78701 1.06055 1.732 1.28677 1.89035L7.50004 6.23964L13.7133 1.89035C13.9395 1.732 14.2513 1.78701 14.4097 2.01324C14.568 2.23946 14.513 2.55123 14.2868 2.70959L7.78677 7.25959C7.61461 7.3801 7.38547 7.3801 7.21331 7.25959L0.713312 2.70959C0.487087 2.55123 0.43207 2.23946 0.590427 2.01324Z" fill="white"/>
</svg>
