<svg width="15" height="18" viewBox="0 0 15 18" fill="none" xmlns="http://www.w3.org/2000/svg">
<path fill-rule="evenodd" clip-rule="evenodd" d="M7.5 1.5C5.9087 1.5 4.38258 2.13214 3.25736 3.25736C2.13214 4.38258 1.5 5.9087 1.5 7.5C1.5 9.82681 3.00787 12.0521 4.61298 13.7464C5.40531 14.5828 6.19933 15.2667 6.79584 15.7417C7.08602 15.9727 7.3285 16.1536 7.5 16.2778C7.67149 16.1536 7.91398 15.9727 8.20416 15.7417C8.80067 15.2667 9.59469 14.5828 10.387 13.7464C11.9921 12.0521 13.5 9.82681 13.5 7.5C13.5 5.9087 12.8679 4.38258 11.7426 3.25736C10.6174 2.13214 9.0913 1.5 7.5 1.5ZM7.5 16.8889L7.77735 17.3049C7.6094 17.4169 7.3906 17.4169 7.22265 17.3049L7.5 16.8889ZM2.55025 2.55025C3.86301 1.2375 5.64348 0.5 7.5 0.5C9.35651 0.5 11.137 1.2375 12.4497 2.55025C13.7625 3.86301 14.5 5.64349 14.5 7.5C14.5 10.2287 12.7579 12.6979 11.113 14.4342C10.2803 15.3131 9.44933 16.0285 8.82709 16.524C8.51557 16.772 8.25535 16.9658 8.07204 17.0982C7.98036 17.1644 7.90784 17.2153 7.85768 17.25C7.8326 17.2674 7.8131 17.2807 7.79958 17.2899L7.78383 17.3006L7.77941 17.3035L7.77735 17.3049C7.77719 17.305 7.77735 17.3049 7.5 16.8889C7.22265 17.3049 7.22281 17.305 7.22265 17.3049L7.22059 17.3035L7.21617 17.3006L7.20042 17.2899C7.1869 17.2807 7.1674 17.2674 7.14232 17.25C7.09216 17.2153 7.01964 17.1644 6.92796 17.0982C6.74465 16.9658 6.48443 16.772 6.17291 16.524C5.55067 16.0285 4.71969 15.3131 3.88702 14.4342C2.24213 12.6979 0.5 10.2287 0.5 7.5C0.5 5.64349 1.2375 3.86301 2.55025 2.55025Z" fill="white"/>
<path fill-rule="evenodd" clip-rule="evenodd" d="M7.49998 5.83337C6.57951 5.83337 5.83331 6.57957 5.83331 7.50004C5.83331 8.42052 6.57951 9.16671 7.49998 9.16671C8.42045 9.16671 9.16665 8.42052 9.16665 7.50004C9.16665 6.57957 8.42045 5.83337 7.49998 5.83337ZM4.83331 7.50004C4.83331 6.02728 6.02722 4.83337 7.49998 4.83337C8.97274 4.83337 10.1666 6.02728 10.1666 7.50004C10.1666 8.9728 8.97274 10.1667 7.49998 10.1667C6.02722 10.1667 4.83331 8.9728 4.83331 7.50004Z" fill="white"/>
</svg>
